<svg xmlns="http://www.w3.org/2000/svg" viewBox="0 0 200 160" width="100%" height="100%">
  <path fill="#865A4B" d="M 40 28
           Q 52 28, 63 30
           L 63 35
           Q 71 36, 79 38
           L 78 45
           Q 128 45, 173 48
           C 183 49, 185 56, 184 68
           Q 179 105, 174 142
           C 172 152, 165 155, 152 154
           Q 96 151, 40 148
           C 28 147, 24 141, 26 130
           Q 30 88, 35 46
           C 36 38, 37 32, 40 28 Z" />

  <path fill="#B99383" d="M 42 29
           Q 51 29, 61 31
           L 61 36
           Q 68 37, 76 38
           L 75 45
           Q 120 45, 162 48
           C 170 49, 172 55, 170 65
           Q 166 100, 162 138
           C 160 146, 154 148, 144 147
           Q 93 144, 40 142
           C 31 141, 28 136, 30 126
           Q 34 86, 38 46
           C 39 39, 40 33, 42 29 Z" />

  <path stroke="#865A4B" stroke-width="3" stroke-linecap="round" fill="none"
        d="M 39 37 Q 50 37, 61 37" />

  <path stroke="#865A4B" stroke-width="3" stroke-linecap="round" fill="none"
        d="M 38 46 Q 56 46, 74 46" />

  <path stroke="#FFF4E8" stroke-width="6" stroke-linecap="round" stroke-linejoin="round" fill="none"
        d="M 76 49
           Q 118 48, 157 52
           C 163 53, 164 56, 163 63
           Q 159 94, 156 125" />

  <path stroke="#FFF4E8" stroke-width="2" stroke-linecap="round" fill="none" opacity="0.6"
        d="M 45 31 Q 52 30, 58 32" />
  <path stroke="#FFF4E8" stroke-width="2" stroke-linecap="round" fill="none" opacity="0.6"
        d="M 64 38 Q 69 38, 73 39" />
</svg>
